# xmcd
#
# Track frame offsets:
#	150
#	29590
#	44470
#	87310
#	114458
#	142498
#	167148
#	195723
#	216623
#	241500
#	267965
#	289995
#
# Disc length: 4055 seconds
#
# Revision: 1
# Processed by: cddbd v1.5.1PL0 Copyright (c) Steve Scherf et al.
# Submitted via: CDex 1.50Beta5
#
DISCID=bf0fd50c
DTITLE=さまざまなアーティスト - ジャズ・ギター名演集 Disc-2
DYEAR=1900
DGENRE=Jazz
TTITLE0=ウエス・モンゴメリー/ベサメ・ムーチョ
TTITLE1=ウエス・モンゴメリー/チャーリー・クリスチャンに捧ぐ
TTITLE2=ケニー・バレル/リトル・メロネエ
TTITLE3=タル・ファーロウ/マイ・ロマンス
TTITLE4=ミルト・ジャクソン&ウエス・モンゴメリー/デライラ
TTITLE5=ザ・ポール・ウイナーズ/ソー・ホワット
TTITLE6=ケニー・バレル/オール・オブ・ユー
TTITLE7=ウエス・モンゴメリー/ドゥジー
TTITLE8=ザ・ポール・ウイナーズ/飾りのついた四輪車
TTITLE9=パット・マルティーノ/ジャスト・フレンズ
TTITLE10=ウエス・モンゴメリー/イン・ユア・オウン・スウィート・ウェイ
TTITLE11=バーニー・ケッセル/ミッドナイト・サン
EXTD=
EXTT0=
EXTT1=
EXTT2=
EXTT3=
EXTT4=
EXTT5=
EXTT6=
EXTT7=
EXTT8=
EXTT9=
EXTT10=
EXTT11=
PLAYORDER=
